<?xml version="1.0" encoding="iso-8859-1"?>
<!-- Generator: Adobe Illustrator 19.0.0, SVG Export Plug-In . SVG Version: 6.00 Build 0)  -->
<svg version="1.1" id="Capa_1" xmlns="http://www.w3.org/2000/svg" xmlns:xlink="http://www.w3.org/1999/xlink" x="0px" y="0px"
	 viewBox="0 0 58 58" style="enable-background:new 0 0 58 58;" xml:space="preserve">
<g>
	<path style="fill:#7F5B53;" d="M29,0C12.984,0,0,12.984,0,29c0,16.016,12.984,29,29,29c16.016,0,29-12.984,29-29
		C58,12.984,45.016,0,29,0z M46.678,46.678C41.956,51.4,35.678,54,29,54C15.215,54,4,42.785,4,29c0-6.678,2.6-12.955,7.322-17.677
		C16.044,6.601,22.322,4,29,4.001c13.785,0,25,11.215,25,25C54,35.678,51.4,41.956,46.678,46.678z"/>
	<path style="fill:#2C2F38;" d="M54,28H36.931c-0.092-0.736-0.278-1.443-0.556-2.103l14.764-8.524
		c0.479-0.276,0.642-0.888,0.366-1.366c-0.277-0.479-0.888-0.643-1.366-0.366l-14.771,8.529c-0.006-0.008-0.013-0.014-0.019-0.022
		c-0.431-0.563-0.933-1.065-1.496-1.496c-0.008-0.006-0.014-0.014-0.022-0.02L42.36,7.86c0.276-0.479,0.112-1.09-0.366-1.366
		c-0.481-0.277-1.09-0.112-1.366,0.366l-8.524,14.764c-0.66-0.278-1.367-0.464-2.103-0.556V4c0-0.552-0.448-1-1-1s-1,0.448-1,1
		v17.069c-0.736,0.092-1.443,0.278-2.103,0.556L17.364,6.846c-0.277-0.478-0.888-0.644-1.366-0.366
		c-0.479,0.276-0.642,0.888-0.366,1.366l8.537,14.785c-0.008,0.006-0.015,0.013-0.022,0.02c-0.563,0.431-1.065,0.933-1.496,1.496
		c-0.006,0.008-0.013,0.014-0.019,0.022L7.846,15.632c-0.48-0.277-1.091-0.112-1.366,0.366c-0.276,0.479-0.112,1.09,0.366,1.366
		l14.779,8.532c-0.278,0.66-0.464,1.367-0.556,2.103H4c-0.552,0-1,0.448-1,1s0.448,1,1,1h17.069
		c0.092,0.736,0.278,1.443,0.556,2.103L6.86,40.628c-0.479,0.276-0.642,0.888-0.366,1.366c0.276,0.477,0.888,0.642,1.366,0.366
		l14.771-8.529c0.006,0.008,0.013,0.014,0.019,0.022c0.431,0.563,0.934,1.066,1.497,1.497c0.008,0.006,0.014,0.013,0.022,0.019
		L15.64,50.14c-0.276,0.478-0.112,1.09,0.366,1.366c0.158,0.091,0.33,0.134,0.499,0.134c0.346,0,0.682-0.179,0.867-0.5l8.525-14.765
		c0.66,0.278,1.367,0.464,2.103,0.556V54c0,0.552,0.448,1,1,1s1-0.448,1-1V36.931c0.736-0.092,1.443-0.278,2.103-0.556l8.533,14.78
		c0.186,0.321,0.521,0.5,0.867,0.5c0.169,0,0.342-0.043,0.499-0.134c0.479-0.276,0.642-0.888,0.366-1.366l-8.538-14.786
		c0.008-0.006,0.014-0.013,0.022-0.019c0.563-0.431,1.066-0.934,1.497-1.497c0.006-0.008,0.013-0.014,0.019-0.022l14.786,8.538
		c0.479,0.275,1.09,0.111,1.366-0.366c0.276-0.478,0.112-1.09-0.366-1.366l-14.78-8.533c0.278-0.66,0.464-1.367,0.556-2.103H54
		c0.552,0,1-0.448,1-1S54.552,28,54,28z M29,32.429c-1.894,0-3.429-1.535-3.429-3.429c0-1.894,1.535-3.429,3.429-3.429
		s3.429,1.535,3.429,3.429C32.429,30.893,30.894,32.429,29,32.429z"/>
	<path style="fill:#BDC3C7;" d="M29,23c-3.314,0-6,2.686-6,6s2.686,6,6,6s6-2.686,6-6S32.314,23,29,23z M29,32c-1.657,0-3-1.343-3-3
		s1.343-3,3-3s3,1.343,3,3S30.657,32,29,32z"/>
</g>
<g>
</g>
<g>
</g>
<g>
</g>
<g>
</g>
<g>
</g>
<g>
</g>
<g>
</g>
<g>
</g>
<g>
</g>
<g>
</g>
<g>
</g>
<g>
</g>
<g>
</g>
<g>
</g>
<g>
</g>
</svg>
